# xmcd
#
# Track frame offsets:
#	150
#	16506
#	34320
#	55088
#	69992
#	89202
#	106559
#	123906
#	137439
#	154996
#	172369
#	192016
#	206783
#	223429
#	241340
#	259473
#	279563
#	295502
#	311441
#	327080
#
# Disc length: 4546 seconds
#
# Revision: 2
# Processed by: cddbd v1.5.2PL0 Copyright (c) Steve Scherf et al.
# Submitted via: audiograbber 1.83.01
#
DISCID=2911c014
DTITLE=Various Artist - Country Hits 2009 - Vol. 2
DYEAR=2009
DGENRE=Country
TTITLE0=Toby Keith - Lost You Anyway
TTITLE1=Rascal Flatts - Here
TTITLE2=Sugarland - Already Gone
TTITLE3=Aaron Pritchett - Hell Bent For Buffalo
TTITLE4=Tara Oram - Fly Girl
TTITLE5=Doc Walker - That's All
TTITLE6=George Canyon - All Or Nothing
TTITLE7=Johnny Reid - Out Of The Blue
TTITLE8=Bryce Pallister - Ready To Go
TTITLE9=Jaydee Bixby Boys - Boys In The Band
TTITLE10=Beverly Mahood - Rewrite History
TTITLE11=The Higgins - Real Thing
TTITLE12=Jack Ingram - That's A Man
TTITLE13=The Rankin Family - Never Alone
TTITLE14=Jo Hikk - My Kind Of Radio
TTITLE15=Reba McEntire and Vince Gill - These Broken Hearts
TTITLE16=The Wilkinsons - You Heal Me
TTITLE17=Shane Yellowbird - Life Is Calling My Name
TTITLE18=Jason Blaine - Give It To Me
TTITLE19=Alex J. Robinson - Don't Waste My Time
EXTD=
EXTT0=
EXTT1=
EXTT2=
EXTT3=
EXTT4=
EXTT5=
EXTT6=
EXTT7=
EXTT8=
EXTT9=
EXTT10=
EXTT11=
EXTT12=
EXTT13=
EXTT14=
EXTT15=
EXTT16=
EXTT17=
EXTT18=
EXTT19=
PLAYORDER=
